<?xml version="1.0" encoding="UTF-8"?>
<!DOCTYPE svg PUBLIC "-//W3C//DTD SVG 1.1//EN" "http://www.w3.org/Graphics/SVG/1.1/DTD/svg11.dtd">
<svg xmlns="http://www.w3.org/2000/svg" version="1.1" width="512px" height="512px" style="shape-rendering:geometricPrecision; text-rendering:geometricPrecision; image-rendering:optimizeQuality; fill-rule:evenodd; clip-rule:evenodd" xmlns:xlink="http://www.w3.org/1999/xlink">
<g><path style="opacity:0.936" fill="#000000" d="M 511.5,472.5 C 511.5,475.167 511.5,477.833 511.5,480.5C 509.99,481.836 508.323,483.003 506.5,484C 341.5,484.667 176.5,484.667 11.5,484C 5.74088,480.108 5.07421,475.441 9.5,470C 18.3991,468.722 27.3991,468.055 36.5,468C 16.4099,452.986 4.07652,433.152 -0.5,408.5C -0.5,399.833 -0.5,391.167 -0.5,382.5C 7.86582,341.634 32.5325,316.8 73.5,308C 99.1239,304.364 122.291,310.197 143,325.5C 148.821,321.012 153.988,315.846 158.5,310C 141,292.5 123.5,275 106,257.5C 98.1871,244.398 98.8538,231.731 108,219.5C 140.833,186.667 173.667,153.833 206.5,121C 211.59,117.289 217.257,114.956 223.5,114C 222.736,111.931 222.236,109.764 222,107.5C 221.5,99.5069 221.334,91.5069 221.5,83.5C 212.494,83.6664 203.494,83.4998 194.5,83C 187.202,78.4474 186.869,73.4474 193.5,68C 202.827,67.5002 212.161,67.3335 221.5,67.5C 223.861,43.305 237.194,29.805 261.5,27C 281.567,24.2066 297.734,30.7066 310,46.5C 312.427,50.5404 314.094,54.8738 315,59.5C 315.667,76.5 315.667,93.5 315,110.5C 309.823,132.678 295.989,145.511 273.5,149C 278.833,154 278.833,159 273.5,164C 270.833,164.667 268.167,164.667 265.5,164C 254.437,152.268 242.771,141.268 230.5,131C 220.465,128.501 215.798,132.334 216.5,142.5C 217.152,158.645 224.152,171.145 237.5,180C 240.462,180.09 242.796,178.757 244.5,176C 247.5,174 250.5,174 253.5,176C 266.833,186.667 280.167,197.333 293.5,208C 312.684,216.837 331.851,225.67 351,234.5C 359.629,224.59 369.796,222.59 381.5,228.5C 382.747,226.994 382.747,225.494 381.5,224C 370.167,223.667 358.833,223.333 347.5,223C 330.833,214 314.167,205 297.5,196C 293.298,192.133 289.465,187.967 286,183.5C 284.992,177.532 287.492,173.865 293.5,172.5C 299.134,174.624 303.801,178.124 307.5,183C 322.167,191 336.833,199 351.5,207C 363.903,207.06 376.237,207.727 388.5,209C 393.06,211.227 396.226,214.727 398,219.5C 398.499,225.491 398.666,231.491 398.5,237.5C 413.252,235.242 425.085,239.908 434,251.5C 442.117,270.15 437.284,284.317 419.5,294C 405.902,295.28 392.235,295.946 378.5,296C 380.631,301.097 383.131,305.93 386,310.5C 424.516,301.006 456.516,311.34 482,341.5C 504.177,374.126 505.844,407.792 487,442.5C 480.544,452.623 472.377,461.123 462.5,468C 477.167,468.333 491.833,468.667 506.5,469C 508.323,469.997 509.99,471.164 511.5,472.5 Z M 262.5,42.5 C 275.725,41.0725 286.891,45.0725 296,54.5C 298.495,58.4845 299.662,62.8179 299.5,67.5C 278.833,67.5 258.167,67.5 237.5,67.5C 239.511,52.8222 247.844,44.4889 262.5,42.5 Z M 237.5,83.5 C 239.5,83.5 241.5,83.5 243.5,83.5C 243.667,95.5046 243.5,107.505 243,119.5C 240.486,115.475 238.819,111.141 238,106.5C 237.5,98.8406 237.334,91.1739 237.5,83.5 Z M 259.5,83.5 C 272.833,83.5 286.167,83.5 299.5,83.5C 299.666,91.84 299.5,100.173 299,108.5C 292.612,127.523 279.612,135.19 260,131.5C 259.5,115.503 259.333,99.5035 259.5,83.5 Z M 200.5,149.5 C 203.269,167.873 212.269,182.373 227.5,193C 212.667,207.833 197.833,222.667 183,237.5C 171.319,225.986 159.819,214.319 148.5,202.5C 165.855,184.813 183.188,167.146 200.5,149.5 Z M 248.5,194.5 C 258.143,200.287 267.143,207.12 275.5,215C 260.139,215.814 244.806,215.481 229.5,214C 236.036,207.631 242.369,201.131 248.5,194.5 Z M 135.5,214.5 C 158.249,235.747 180.582,257.58 202.5,280C 194,288.5 185.5,297 177,305.5C 157.667,286.167 138.333,266.833 119,247.5C 116.123,243.024 115.79,238.357 118,233.5C 123.671,226.996 129.505,220.663 135.5,214.5 Z M 212.5,230.5 C 217.5,230.5 222.5,230.5 227.5,230.5C 227.5,242.5 227.5,254.5 227.5,266.5C 222.156,266.666 216.823,266.499 211.5,266C 205.833,260.333 200.167,254.667 194.5,249C 200.703,242.965 206.703,236.798 212.5,230.5 Z M 243.5,231.5 C 259.503,231.333 275.503,231.5 291.5,232C 298.876,236.267 300.376,242.101 296,249.5C 284.833,259.333 273.667,269.167 262.5,279C 256.175,279.5 249.842,279.666 243.5,279.5C 243.343,278.127 243.51,276.793 244,275.5C 249.017,271.496 252.851,266.663 255.5,261C 254.242,254.257 250.242,251.757 243.5,253.5C 243.5,246.167 243.5,238.833 243.5,231.5 Z M 314.5,235.5 C 325.022,240.593 335.688,245.426 346.5,250C 351.844,265.672 362.51,271.339 378.5,267C 384.227,264.273 388.227,259.94 390.5,254C 397.5,253.333 404.5,253.333 411.5,254C 418.041,255.877 421.708,260.21 422.5,267C 421.371,272.455 418.371,276.455 413.5,279C 371.5,279.667 329.5,279.667 287.5,279C 296.333,271.5 304.5,263.333 312,254.5C 314.178,248.364 315.012,242.031 314.5,235.5 Z M 368.5,240.5 C 374.682,242.025 376.348,245.525 373.5,251C 366.051,253.714 363.051,251.214 364.5,243.5C 365.901,242.479 367.235,241.479 368.5,240.5 Z M 224.5,295.5 C 230.842,295.334 237.175,295.5 243.5,296C 238,300.833 232.5,305.667 227,310.5C 226.711,305.387 225.878,300.387 224.5,295.5 Z M 267.5,295.5 C 289.836,295.333 312.169,295.5 334.5,296C 319.667,311.5 304.833,327 290,342.5C 287.167,353 291,356.833 301.5,354C 320.167,334.667 338.833,315.333 357.5,296C 358.944,295.219 360.277,295.386 361.5,296.5C 364.728,303.357 367.228,310.357 369,317.5C 330.524,341.559 316.191,375.893 326,420.5C 331.896,440.153 343.063,455.986 359.5,468C 286.167,468.667 212.833,468.667 139.5,468C 160.239,452.703 172.406,432.203 176,406.5C 175.519,413.59 177.353,419.924 181.5,425.5C 182.912,426.806 184.579,427.64 186.5,428C 199.5,428.333 212.5,428.667 225.5,429C 238.087,436.849 251.087,437.515 264.5,431C 280.823,417.733 284.156,401.733 274.5,383C 276.653,380.178 278.819,377.344 281,374.5C 282.167,366.333 278.667,362.833 270.5,364C 267.322,366.514 264.156,369.014 261,371.5C 249.091,366.778 237.757,367.778 227,374.5C 226.333,360.5 226.333,346.5 227,332.5C 240.696,320.301 254.196,307.967 267.5,295.5 Z M 207.5,297.5 C 208.927,299.148 209.76,301.148 210,303.5C 210.5,331.498 210.667,359.498 210.5,387.5C 205.5,387.5 200.5,387.5 195.5,387.5C 193.003,363.54 191.17,339.54 190,315.5C 196.036,309.631 201.87,303.631 207.5,297.5 Z M 169.5,321.5 C 171.129,322.625 172.629,323.959 174,325.5C 175.614,346.202 177.447,366.869 179.5,387.5C 178.5,387.5 177.5,387.5 176.5,387.5C 174.44,368.718 167.44,352.051 155.5,337.5C 160.584,332.423 165.251,327.09 169.5,321.5 Z M 83.5,322.5 C 101.333,322.167 117.333,327.334 131.5,338C 130.845,339.487 129.845,340.653 128.5,341.5C 100.458,323.69 72.7917,324.19 45.5,343C 18.8127,368.287 13.646,397.454 30,430.5C 50.9015,460.006 78.7348,469.173 113.5,458C 137.22,447.393 150.886,429.226 154.5,403.5C 156.604,403.201 158.604,403.534 160.5,404.5C 152.208,444.144 127.875,465.477 87.5,468.5C 48.3202,465.484 24.4868,444.818 16,406.5C 13.0233,368.602 28.8566,342.102 63.5,327C 70.2013,325.03 76.868,323.53 83.5,322.5 Z M 408.5,322.5 C 454.085,325.751 479.418,350.085 484.5,395.5C 482.215,429.599 465.215,452.765 433.5,465C 392.804,474.232 362.971,460.398 344,423.5C 331.532,385.066 342.032,354.733 375.5,332.5C 376.95,333.655 377.95,335.155 378.5,337C 352.209,353.089 341.043,376.589 345,407.5C 355.629,447.11 381.462,465.277 422.5,462C 449.64,456.676 467.474,440.842 476,414.5C 479.551,400.741 479.217,387.075 475,373.5C 470.862,366.473 465.862,365.806 460,371.5C 460.548,379.641 461.381,387.807 462.5,396C 461.242,419.196 449.909,435.196 428.5,444C 400.374,451.513 379.208,442.68 365,417.5C 354.771,390.865 361.104,369.198 384,352.5C 390.925,368.021 397.591,383.687 404,399.5C 407.509,403.613 411.676,404.446 416.5,402C 418.167,400.177 419.167,398.01 419.5,395.5C 413.226,379.012 406.559,362.678 399.5,346.5C 410.758,343.392 421.758,344.225 432.5,349C 436.56,351.696 440.893,353.863 445.5,355.5C 451.889,354.51 454.389,350.844 453,344.5C 452.215,342.714 451.049,341.214 449.5,340C 431.842,329.057 412.842,325.89 392.5,330.5C 392.579,329.07 392.246,327.736 391.5,326.5C 392,326.167 392.5,325.833 393,325.5C 398.27,324.314 403.437,323.314 408.5,322.5 Z M 80.5,344.5 C 93.7201,343.304 105.72,346.471 116.5,354C 106.03,365.471 95.1966,376.637 84,387.5C 81.2125,391.67 80.8791,396.003 83,400.5C 84.4194,401.46 85.9194,402.293 87.5,403C 104.51,403.167 121.51,403.667 138.5,404.5C 129.823,434.674 109.823,448.508 78.5,446C 49.9194,438.007 36.0861,419.174 37,389.5C 41.9093,365.093 56.4093,350.093 80.5,344.5 Z M 143.5,349.5 C 152.785,360.246 158.452,372.746 160.5,387C 158.527,387.495 156.527,387.662 154.5,387.5C 153.138,374.78 148.471,363.446 140.5,353.5C 141.524,352.148 142.524,350.815 143.5,349.5 Z M 127.5,365.5 C 129.624,366.031 131.124,367.365 132,369.5C 134.857,374.904 137.024,380.571 138.5,386.5C 128.183,387.666 117.849,387.832 107.5,387C 114.739,380.264 121.406,373.098 127.5,365.5 Z M 241.5,384.5 C 258.458,383.95 265.625,391.95 263,408.5C 261.221,412.612 258.388,415.778 254.5,418C 253.365,418.749 252.365,418.583 251.5,417.5C 253.156,410.002 252.656,402.669 250,395.5C 245.864,391.006 240.697,388.84 234.5,389C 236.76,387.212 239.093,385.712 241.5,384.5 Z M 192.5,405.5 C 207.167,405.5 221.833,405.5 236.5,405.5C 236.5,407.833 236.5,410.167 236.5,412.5C 221.833,412.5 207.167,412.5 192.5,412.5C 192.5,410.167 192.5,407.833 192.5,405.5 Z"/></g>
<g><path style="opacity:0.879" fill="#000000" d="M 284.5,87.5 C 289.772,86.5491 293.272,88.5491 295,93.5C 295.667,97.1667 295.667,100.833 295,104.5C 292.305,110.098 288.138,111.598 282.5,109C 281.299,108.097 280.465,106.931 280,105.5C 279.333,100.833 279.333,96.1667 280,91.5C 281.397,89.9297 282.897,88.5964 284.5,87.5 Z"/></g>
</svg>
