<?xml version="1.0" encoding="UTF-8"?>
<!DOCTYPE svg PUBLIC "-//W3C//DTD SVG 1.1//EN" "http://www.w3.org/Graphics/SVG/1.1/DTD/svg11.dtd">
<svg xmlns="http://www.w3.org/2000/svg" version="1.1" width="512px" height="512px" style="shape-rendering:geometricPrecision; text-rendering:geometricPrecision; image-rendering:optimizeQuality; fill-rule:evenodd; clip-rule:evenodd" xmlns:xlink="http://www.w3.org/1999/xlink">
<g><path style="opacity:0.945" fill="#000000" d="M 211.5,15.5 C 288.834,15.3333 366.167,15.5 443.5,16C 446.516,17.5286 447.849,20.0286 447.5,23.5C 447.485,25.6341 446.985,27.6341 446,29.5C 409.333,66.1667 372.667,102.833 336,139.5C 335.333,150.833 335.333,162.167 336,173.5C 342.194,187.084 348.194,200.75 354,214.5C 357.076,215.288 360.242,215.788 363.5,216C 365.333,216.5 366.5,217.667 367,219.5C 368.928,225.479 367.095,229.646 361.5,232C 363.795,236.759 365.962,241.592 368,246.5C 371.745,247.297 375.579,247.797 379.5,248C 381.333,248.5 382.5,249.667 383,251.5C 385.18,258.658 382.68,262.825 375.5,264C 377.734,268.859 380.067,273.692 382.5,278.5C 386.796,279.328 391.129,279.828 395.5,280C 397.333,280.5 398.5,281.667 399,283.5C 401.239,291.874 398.072,296.041 389.5,296C 392.119,300.686 394.452,305.52 396.5,310.5C 401.467,311.329 406.467,311.829 411.5,312C 413.333,312.5 414.5,313.667 415,315.5C 417.278,324.624 413.778,328.624 404.5,327.5C 409.469,340.94 415.135,354.107 421.5,367C 443.712,363.589 463.212,369.089 480,383.5C 487.362,391.889 492.362,401.556 495,412.5C 495.667,429.833 495.667,447.167 495,464.5C 490.833,480.667 480.667,490.833 464.5,495C 413.167,495.667 361.833,495.667 310.5,495C 288.158,492.159 268.158,483.825 250.5,470C 224.361,444.862 198.528,419.362 173,393.5C 171.08,390.661 169.413,387.661 168,384.5C 167.667,373.5 167.333,362.5 167,351.5C 166.934,348.724 165.768,346.558 163.5,345C 151.57,343.728 139.57,343.062 127.5,343C 125.051,342.275 122.717,341.275 120.5,340C 91.3333,310.833 62.1667,281.667 33,252.5C 11.5424,220.449 12.5424,189.116 36,158.5C 77.1667,117.333 118.333,76.1667 159.5,35C 170.197,27.5085 180.697,27.6751 191,35.5C 197.729,28.6033 204.562,21.9366 211.5,15.5 Z M 219.5,31.5 C 285.834,31.3333 352.168,31.5 418.5,32C 388.167,62.3333 357.833,92.6667 327.5,123C 324.505,122.354 321.505,121.354 318.5,120C 305.833,119.333 293.167,119.333 280.5,120C 272.333,122.833 266.833,128.333 264,136.5C 263.832,145.518 263.332,154.518 262.5,163.5C 257.175,161.173 252.175,158.34 247.5,155C 235.667,143.167 223.833,131.333 212,119.5C 204.219,109.157 200.219,97.4906 200,84.5C 199.333,73.5 199.333,62.5 200,51.5C 206.703,44.9648 213.203,38.2982 219.5,31.5 Z M 173.5,46.5 C 177.025,46.3459 179.859,47.6792 182,50.5C 183.271,66.1131 183.937,81.7798 184,97.5C 186,108.839 190.333,119.172 197,128.5C 211.568,145.069 227.401,160.236 244.5,174C 256.001,180.389 268.334,183.722 281.5,184C 286.021,194.211 290.688,204.378 295.5,214.5C 268.696,217.968 244.696,211.468 223.5,195C 204.971,176.805 186.805,158.305 169,139.5C 154.367,117.751 148.7,93.7512 152,67.5C 159.062,60.2701 166.229,53.2701 173.5,46.5 Z M 134.5,84.5 C 134.361,112.567 143.528,137.234 162,158.5C 177.5,174 193,189.5 208.5,205C 224.591,219.043 243.257,227.71 264.5,231C 277.167,231.333 289.833,231.667 302.5,232C 305.119,236.686 307.452,241.52 309.5,246.5C 300.852,247.332 292.186,247.832 283.5,248C 281.667,248.5 280.5,249.667 280,251.5C 279.333,254.167 279.333,256.833 280,259.5C 280.5,261.333 281.667,262.5 283.5,263C 294.828,263.5 306.162,263.667 317.5,263.5C 319.099,268.624 321.099,273.624 323.5,278.5C 315.521,279.332 307.521,279.832 299.5,280C 297.667,280.5 296.5,281.667 296,283.5C 295.333,286.167 295.333,288.833 296,291.5C 296.5,293.333 297.667,294.5 299.5,295C 310.161,295.5 320.828,295.667 331.5,295.5C 333.204,300.581 335.204,305.581 337.5,310.5C 329.419,311.061 321.419,311.895 313.5,313C 310.833,317.333 310.833,321.667 313.5,326C 324.085,327.122 334.752,327.955 345.5,328.5C 350.709,340.959 356.209,353.292 362,365.5C 368.193,374.681 376.693,380.514 387.5,383C 404.833,383.333 422.167,383.667 439.5,384C 466.976,387.731 480.31,403.564 479.5,431.5C 443.146,431.917 406.813,431.417 370.5,430C 354.389,427.525 340.056,421.192 327.5,411C 255.833,339.333 184.167,267.667 112.5,196C 125.376,179.33 130.21,160.497 127,139.5C 125.009,127.354 120.175,116.521 112.5,107C 120.036,99.6316 127.369,92.1316 134.5,84.5 Z M 99.5,119.5 C 107.439,128.541 111.106,139.208 110.5,151.5C 110.994,163.543 107.494,174.21 100,183.5C 89.3191,172.986 78.8191,162.319 68.5,151.5C 78.8547,140.813 89.188,130.146 99.5,119.5 Z M 287.5,135.5 C 295.507,135.334 303.507,135.5 311.5,136C 316,136.5 318.5,139 319,143.5C 319.5,151.493 319.666,159.493 319.5,167.5C 306.45,167.814 293.45,167.481 280.5,166.5C 279.335,158.855 279.169,151.188 280,143.5C 280.68,138.989 283.18,136.323 287.5,135.5 Z M 54.5,164.5 C 140.917,249.416 226.917,334.916 312.5,421C 328.591,435.043 347.257,443.71 368.5,447C 405.498,447.5 442.498,447.667 479.5,447.5C 481.022,465.457 473.022,475.957 455.5,479C 447.507,479.5 439.507,479.666 431.5,479.5C 431.666,475.486 431.499,471.486 431,467.5C 429.471,464.484 426.971,463.151 423.5,463.5C 421.074,463.404 418.907,464.07 417,465.5C 415.621,470.036 415.121,474.703 415.5,479.5C 399.5,479.5 383.5,479.5 367.5,479.5C 367.666,475.486 367.499,471.486 367,467.5C 365.471,464.484 362.971,463.151 359.5,463.5C 357.074,463.404 354.907,464.07 353,465.5C 351.621,470.036 351.121,474.703 351.5,479.5C 336.095,479.862 320.762,479.028 305.5,477C 288.462,473.647 273.462,466.313 260.5,455C 267.032,448.802 273.199,442.302 279,435.5C 280.536,424.503 276.036,421.003 265.5,425C 259.652,431.015 253.652,436.848 247.5,442.5C 235.5,431.167 223.833,419.5 212.5,407.5C 218.152,401.348 223.985,395.348 230,389.5C 233.833,377.333 229.667,373.167 217.5,377C 211.833,382.667 206.167,388.333 200.5,394C 199.833,394.667 199.167,394.667 198.5,394C 194,389.5 189.5,385 185,380.5C 183.751,368.557 183.085,356.557 183,344.5C 179.566,334.735 172.732,328.902 162.5,327C 152.167,326.667 141.833,326.333 131.5,326C 121.029,316.53 110.863,306.697 101,296.5C 100.333,295.833 100.333,295.167 101,294.5C 106.667,288.833 112.333,283.167 118,277.5C 121.833,265.333 117.667,261.167 105.5,265C 99.6521,271.015 93.6521,276.848 87.5,282.5C 75.8474,271.348 64.3474,260.014 53,248.5C 52.3333,247.833 52.3333,247.167 53,246.5C 58.6667,240.833 64.3333,235.167 70,229.5C 73.997,218.964 70.497,214.464 59.5,216C 53.3501,221.316 47.3501,226.816 41.5,232.5C 29.7003,206.77 34.0337,184.103 54.5,164.5 Z M 300.5,184.5 C 307.321,183.345 314.321,183.179 321.5,184C 326.021,194.211 330.688,204.378 335.5,214.5C 328.524,215.664 321.524,215.831 314.5,215C 309.929,204.698 305.263,194.532 300.5,184.5 Z M 321.5,232.5 C 328.321,231.345 335.321,231.179 342.5,232C 345.119,236.686 347.452,241.52 349.5,246.5C 342.524,247.664 335.524,247.831 328.5,247C 326.264,242.03 323.93,237.196 321.5,232.5 Z M 335.5,264.5 C 342.648,263.508 349.981,263.175 357.5,263.5C 359.099,268.624 361.099,273.624 363.5,278.5C 356.5,279.833 349.5,279.833 342.5,278.5C 340.147,273.729 337.814,269.063 335.5,264.5 Z M 349.5,296.5 C 356.648,295.508 363.981,295.175 371.5,295.5C 373.204,300.581 375.204,305.581 377.5,310.5C 370.5,311.833 363.5,311.833 356.5,310.5C 354.531,305.554 352.198,300.887 349.5,296.5 Z M 364.5,327.5 C 371.532,327.17 378.532,327.503 385.5,328.5C 390.879,341.475 396.546,354.308 402.5,367C 386.979,368.148 376.812,361.314 372,346.5C 369,340.329 366.5,333.996 364.5,327.5 Z"/></g>
<g><path style="opacity:0.982" fill="#000000" d="M 19.5,335.5 C 46.1687,335.333 72.8354,335.5 99.5,336C 102.516,337.529 103.849,340.029 103.5,343.5C 103.849,346.971 102.516,349.471 99.5,351C 72.8333,351.667 46.1667,351.667 19.5,351C 16.484,349.471 15.1506,346.971 15.5,343.5C 15.2824,339.934 16.6157,337.268 19.5,335.5 Z"/></g>
<g><path style="opacity:0.989" fill="#000000" d="M 19.5,383.5 C 62.168,383.333 104.835,383.5 147.5,384C 150.516,385.529 151.849,388.029 151.5,391.5C 151.849,394.971 150.516,397.471 147.5,399C 104.833,399.667 62.1667,399.667 19.5,399C 16.484,397.471 15.1506,394.971 15.5,391.5C 15.2824,387.934 16.6157,385.268 19.5,383.5 Z"/></g>
<g><path style="opacity:0.992" fill="#000000" d="M 19.5,431.5 C 78.1676,431.333 136.834,431.5 195.5,432C 198.516,433.529 199.849,436.029 199.5,439.5C 199.849,442.971 198.516,445.471 195.5,447C 136.833,447.667 78.1667,447.667 19.5,447C 16.484,445.471 15.1506,442.971 15.5,439.5C 15.2824,435.934 16.6157,433.268 19.5,431.5 Z"/></g>
</svg>
