<?xml version="1.0" encoding="UTF-8"?>
<!DOCTYPE svg PUBLIC "-//W3C//DTD SVG 1.1//EN" "http://www.w3.org/Graphics/SVG/1.1/DTD/svg11.dtd">
<svg xmlns="http://www.w3.org/2000/svg" version="1.1" width="512px" height="512px" style="shape-rendering:geometricPrecision; text-rendering:geometricPrecision; image-rendering:optimizeQuality; fill-rule:evenodd; clip-rule:evenodd" xmlns:xlink="http://www.w3.org/1999/xlink">
<g><path style="opacity:0.972" fill="#000000" d="M 233.5,-0.5 C 248.167,-0.5 262.833,-0.5 277.5,-0.5C 369.217,10.5913 437.717,56.258 483,136.5C 498.511,167.187 508.011,199.521 511.5,233.5C 511.5,248.167 511.5,262.833 511.5,277.5C 499.018,377.805 447.018,449.305 355.5,492C 330.313,502.297 304.313,508.797 277.5,511.5C 262.833,511.5 248.167,511.5 233.5,511.5C 133.195,499.018 61.6947,447.018 19,355.5C 8.70332,330.313 2.20332,304.313 -0.5,277.5C -0.5,262.833 -0.5,248.167 -0.5,233.5C 11.9821,133.195 63.9821,61.6947 155.5,19C 180.687,8.70332 206.687,2.20332 233.5,-0.5 Z M 156.5,38.5 C 185.968,49.7686 215.302,61.4352 244.5,73.5C 245.667,102.161 245.833,130.828 245,159.5C 217.333,181.833 189.667,204.167 162,226.5C 133.554,216.74 105.054,207.073 76.5,197.5C 69.7849,172.807 63.4515,147.974 57.5,123C 83.0387,85.9515 116.039,57.7848 156.5,38.5 Z M 352.5,38.5 C 394.175,57.0016 427.842,85.1683 453.5,123C 447.548,147.974 441.215,172.807 434.5,197.5C 405.946,207.073 377.446,216.74 349,226.5C 321.333,204.167 293.667,181.833 266,159.5C 265.167,130.828 265.333,102.161 266.5,73.5C 295.267,61.807 323.933,50.1403 352.5,38.5 Z M 69.5,216.5 C 97.9635,225.154 126.297,234.321 154.5,244C 155.516,244.519 156.182,245.353 156.5,246.5C 164.579,278.648 172.579,310.815 180.5,343C 180.375,344.627 179.875,346.127 179,347.5C 165.641,364.691 152.475,382.025 139.5,399.5C 111.885,394.786 84.2185,390.286 56.5,386C 34.4491,353.182 21.9491,317.015 19,277.5C 36.0451,257.293 52.8784,236.96 69.5,216.5 Z M 437.5,216.5 C 441.147,216.622 443.981,218.288 446,221.5C 461.333,240.167 476.667,258.833 492,277.5C 489.051,317.015 476.551,353.182 454.5,386C 426.912,390.237 399.412,394.737 372,399.5C 357.291,381.223 343.458,362.389 330.5,343C 338.421,310.815 346.421,278.648 354.5,246.5C 354.818,245.353 355.484,244.519 356.5,244C 383.709,235.098 410.709,225.931 437.5,216.5 Z M 196.5,356.5 C 235.835,356.333 275.168,356.5 314.5,357C 328.358,374.691 342.025,392.524 355.5,410.5C 341.212,436.245 326.546,461.745 311.5,487C 276.98,494.842 242.313,495.509 207.5,489C 189.943,463.26 172.943,437.094 156.5,410.5C 169.472,392.2 182.806,374.2 196.5,356.5 Z"/></g>
</svg>
